<svg width="104" height="51" viewBox="0 0 104 51" fill="none" xmlns="http://www.w3.org/2000/svg">
<path d="M3.46588 37.1207L0.579712 50.8068C0.579712 50.8068 15.383 47.362 27.5794 47.5482C39.7758 47.7344 48.0619 48.7585 55.8824 49.6895C63.703 50.6205 85.7683 51.924 97.8716 48.3861L102.061 33.769C102.061 33.769 85.7683 38.5638 69.8757 37.5676C53.9832 36.5714 45.1757 35.2121 35.6141 34.9608C26.0525 34.7187 11.2865 35.3052 3.46588 37.1207Z" fill="#0D6004"/>
<path d="M4.82501 3.35168L1.93884 17.0377C1.93884 17.0377 16.7421 13.5929 28.9385 13.7791C41.1349 13.9653 49.421 14.9895 57.2416 15.9205C65.0622 16.8515 87.1274 18.1549 99.2307 14.6171L103.42 0C103.42 0 87.1274 4.79477 71.2348 3.79857C55.3423 2.80238 46.5348 1.44308 36.9732 1.19171C27.4209 0.949642 12.6456 1.53619 4.82501 3.35168Z" fill="#FE0002"/>
<path d="M10.9324 31.3485C10.9417 31.4416 10.8486 31.5812 10.6624 31.7767C10.4762 31.9723 10.2993 32.0747 10.141 32.0933L5.70935 32.5681C6.22141 28.8813 6.40762 24.6265 6.27727 19.8224C6.26796 19.7386 6.36107 19.599 6.54727 19.4128C6.73348 19.2266 6.91037 19.1148 7.05933 19.0962C9.1262 18.7145 10.6065 18.4817 11.5096 18.3886C10.9976 22.4665 10.8114 26.7958 10.9324 31.3485ZM11.7889 27.3823C12.3755 26.6003 12.8131 25.7344 13.0924 24.7941C13.3717 23.8537 13.4555 22.8762 13.3437 21.8614C13.232 20.8465 12.8596 19.869 12.2265 18.9566C12.2172 18.8635 12.3103 18.7238 12.5058 18.519C12.7013 18.3235 12.8689 18.2118 13.0179 18.1931C14.4703 18.1373 15.634 18.4352 16.5278 19.0962C17.4216 19.7572 17.9337 20.6603 18.0547 21.8241C18.1292 22.541 18.0361 23.23 17.7661 23.891C17.4961 24.552 17.1144 25.1199 16.6116 25.5948C15.5223 26.6096 14.2189 27.1961 12.7013 27.3544C12.3289 27.4009 12.0217 27.4103 11.7889 27.3823Z" fill="#272727"/>
<path d="M24.4695 31.0042L19.9075 31.209C20.643 27.2614 21.0899 22.9974 21.2575 18.4074C21.2575 18.3236 21.3506 18.1933 21.5554 18.0071C21.7602 17.8302 21.9371 17.7371 22.0861 17.7278L26.6481 17.5229C25.9126 21.4332 25.4564 25.6973 25.2795 30.3152C25.2795 30.399 25.1864 30.5386 24.9815 30.7155C24.7953 30.9017 24.6184 30.9948 24.4695 31.0042Z" fill="#272727"/>
<path d="M27.9424 30.1566C30.9403 25.8739 33.3982 21.6657 35.3068 17.5319L40.1108 17.5971C40.2598 17.5971 40.4367 17.6809 40.6415 17.8578C40.8464 18.0254 40.9488 18.1557 40.9674 18.2488C40.8091 18.5002 40.5019 18.9936 40.0271 19.7478C39.5522 20.5019 39.2543 20.9767 39.124 21.1815C38.9936 21.3864 38.7422 21.796 38.3605 22.4198C37.9788 23.0436 37.7181 23.4532 37.5878 23.6674C37.4574 23.8815 37.234 24.2539 36.9174 24.7753C36.6009 25.306 36.3681 25.697 36.2285 25.9577L35.5954 27.0563C35.3254 27.5218 35.1019 27.9315 34.9157 28.2852C34.7295 28.639 34.5154 29.0394 34.2733 29.4863C34.0313 29.9332 33.7985 30.3894 33.5658 30.8642L28.8175 30.799C28.6593 30.799 28.4824 30.7059 28.2682 30.529C28.0448 30.3707 27.9424 30.2404 27.9424 30.1566ZM29.0968 22.5874C29.3203 20.716 29.5717 19.245 29.8603 18.1557C29.9162 18.0254 30.0279 17.8764 30.2141 17.7181C30.4003 17.5506 30.5492 17.4761 30.661 17.4761L34.3757 17.5226C32.7278 18.7143 31.2568 20.1853 29.9534 21.945C29.8789 22.0567 29.7486 22.187 29.5717 22.3546C29.3948 22.5129 29.2365 22.5874 29.0968 22.5874ZM39.6733 25.7808C39.4498 27.5963 39.1984 29.0859 38.9191 30.2404C38.854 30.3707 38.7329 30.5197 38.556 30.6873C38.3698 30.8549 38.2209 30.9387 38.1091 30.9387L34.3944 30.8921C36.005 29.7376 37.4761 28.2387 38.8167 26.4139C38.9098 26.2929 39.0402 26.1532 39.2171 26.0042C39.394 25.8553 39.5429 25.7808 39.6733 25.7808Z" fill="#272727"/>
<path d="M41.1439 30.3523C44.4677 26.3117 47.2328 22.3083 49.4487 18.3328L54.2341 18.7611C54.3831 18.7704 54.5507 18.8728 54.7369 19.059C54.9231 19.2452 55.0255 19.3849 55.0348 19.478C54.8579 19.7107 54.5134 20.1856 53.9827 20.9024C53.4521 21.6193 53.1169 22.0755 52.9772 22.2617C52.8376 22.4573 52.549 22.8483 52.1207 23.4348C51.6924 24.0214 51.4038 24.4217 51.2548 24.6265C51.1059 24.8314 50.8545 25.1851 50.5007 25.6786C50.1469 26.1813 49.8862 26.5538 49.7187 26.8051L49.0018 27.8572C48.6945 28.3041 48.4432 28.6951 48.229 29.0303C48.0149 29.3654 47.7728 29.7565 47.5028 30.1847C47.2328 30.613 46.9628 31.0506 46.6928 31.4975L41.9632 31.0692C41.805 31.0506 41.6281 30.9482 41.4419 30.762C41.2277 30.5758 41.1346 30.4361 41.1439 30.3523ZM42.8756 22.8948C43.2387 21.0514 43.6018 19.599 43.9742 18.5376C44.0394 18.4073 44.1698 18.277 44.3653 18.128C44.5608 17.979 44.7191 17.9046 44.8308 17.9139L48.5269 18.249C46.7952 19.3104 45.2125 20.6697 43.788 22.3176C43.7043 22.42 43.5646 22.5504 43.3784 22.69C43.1736 22.839 43.006 22.9135 42.8756 22.8948ZM53.1727 26.8889C52.819 28.6858 52.4466 30.1475 52.0835 31.274C52.009 31.3951 51.8786 31.5347 51.6831 31.693C51.4876 31.842 51.3293 31.9164 51.2176 31.9071L47.5214 31.572C49.2066 30.5385 50.7893 29.1606 52.2697 27.4382C52.3721 27.3265 52.5117 27.1962 52.7072 27.0658C52.8841 26.9355 53.0424 26.8703 53.1727 26.8889Z" fill="#272727"/>
<path d="M57.7629 30.8549L57.7164 31.9442C57.7071 32.028 57.5954 32.149 57.3719 32.3073C57.1485 32.4656 56.9623 32.5401 56.8133 32.5308L53.6851 32.3166C54.8395 30.6408 56.655 27.5405 59.1409 23.025C59.1874 23.2019 59.1967 23.4347 59.1781 23.7419C59.1595 24.0491 59.085 24.4774 58.9546 25.0547C58.8243 25.6226 58.666 26.2929 58.4798 27.0657C58.2936 27.8384 58.1447 28.4622 58.0422 28.937C58.9733 29.1418 59.6436 29.356 60.0533 29.5608C60.0253 29.9518 59.9415 30.2404 59.8019 30.4173C59.1222 30.4267 58.4426 30.4732 57.7722 30.5477L57.7629 30.8549ZM65.4718 33.1266L60.9191 32.8194C60.6863 28.7229 60.286 25.1478 59.7088 22.1033C60.137 21.3585 60.5095 20.6788 60.826 20.0551C60.8819 19.962 61.0029 19.8409 61.2077 19.692C61.4125 19.543 61.5801 19.4685 61.7198 19.4778L64.8387 19.692C64.9691 21.6844 65.1832 23.9002 65.4718 26.3581C65.7604 28.8067 66.0677 30.8735 66.3842 32.5494C66.3749 32.6332 66.2632 32.7542 66.0397 32.9125C65.8163 33.0614 65.6208 33.1359 65.4718 33.1266Z" fill="#272727"/>
<path d="M74.3906 32.6611C74.3906 32.7449 74.2882 32.8753 74.0741 33.0522C73.8693 33.2291 73.6831 33.3128 73.5248 33.3128L69.0652 33.3315C69.9497 29.7191 70.5734 25.5109 70.9365 20.7068C70.9365 20.6323 71.039 20.502 71.2531 20.3344C71.4579 20.1668 71.6441 20.083 71.7931 20.0737C73.7575 19.9061 75.2565 19.813 76.2899 19.813C75.3589 23.8909 74.7258 28.1736 74.3906 32.6611ZM81.5036 28.8719L81.3733 30.8456C81.3733 31.2087 81.4385 31.4973 81.5688 31.7115C81.6992 31.9256 81.9412 32.056 82.295 32.1118C82.2298 32.5215 82.1274 32.866 81.9785 33.1266C80.8054 33.4059 79.8092 33.5456 78.9899 33.5456C78.1706 33.5456 77.5375 33.4339 77.0813 33.2104C76.6344 32.987 76.411 32.6332 76.4016 32.1584C76.4016 31.6836 76.4761 31.0318 76.6158 30.2032C76.7647 29.3746 76.8299 28.7881 76.8299 28.4343C76.8299 28.0805 76.7461 27.7919 76.5878 27.5591C76.4296 27.3264 76.2154 27.196 75.9454 27.1681C75.9734 26.8702 76.0851 26.6095 76.2806 26.386C76.8299 26.0974 77.2582 25.6505 77.5654 25.0361C77.8727 24.4309 78.0216 23.7699 78.0216 23.0623C78.0216 22.0009 77.6958 21.1444 77.0627 20.4834C77.0627 20.3809 77.1651 20.2506 77.3792 20.0737C77.584 19.8968 77.7702 19.8037 77.9192 19.8037C79.0923 19.8037 80.1071 20.0365 80.9636 20.5206C81.3919 20.772 81.7457 21.1071 81.9971 21.5354C82.2485 21.9637 82.3788 22.4664 82.3881 23.025C82.3881 23.9468 81.9692 24.7381 81.1312 25.3898C80.2933 26.0416 79.1575 26.414 77.7516 26.5164L78.6361 26.5909C79.5019 26.6747 80.1909 26.8981 80.7216 27.2705C81.243 27.6243 81.5036 28.1643 81.5036 28.8719Z" fill="#272727"/>
<path d="M91.112 18.7056C90.2648 19.6273 89.7061 20.8748 89.4361 22.4576C89.1661 24.031 89.1475 25.6603 89.371 27.3455C89.5944 29.0306 89.9761 30.5202 90.5068 31.8144C90.5161 31.9075 90.4323 32.0564 90.2461 32.2519C90.0599 32.4568 89.883 32.5685 89.7341 32.5871C88.2724 32.494 87.09 31.9168 86.2055 30.874C85.3583 29.8685 84.8369 28.6489 84.6507 27.2058C84.4459 25.651 84.6507 24.1986 85.2559 22.8393C85.9262 21.3404 86.9876 20.2324 88.44 19.5062C89.2313 19.1059 90.1251 18.8359 91.112 18.7056ZM90.991 32.6616C91.8289 31.7399 92.3875 30.4923 92.6482 28.9189C92.9089 27.3361 92.9275 25.7069 92.7133 24.031C92.4899 22.3552 92.1175 20.8562 91.5961 19.5528C91.5868 19.4597 91.6706 19.32 91.8568 19.1152C92.043 18.9197 92.2106 18.808 92.3596 18.7894C93.3278 18.8452 94.175 19.1338 94.9199 19.6459C96.335 20.6235 97.1729 22.141 97.4429 24.1707C97.6478 25.7255 97.4429 27.1686 96.8285 28.5185C96.1488 30.0268 95.0875 31.144 93.6444 31.8702C92.853 32.2706 91.9685 32.5312 90.991 32.6616Z" fill="#272727"/>
</svg>
